<svg xmlns="http://www.w3.org/2000/svg" style="display:none">
  <symbol id="i-menu" viewBox="0 0 24 24"><path d="M4 7h16M4 12h16M4 17h16" stroke="currentColor" stroke-width="2" fill="none" stroke-linecap="round"/></symbol>
  <symbol id="i-arrow" viewBox="0 0 24 24"><path d="M4 12h14M13 6l6 6-6 6" stroke="currentColor" stroke-width="2" fill="none" stroke-linecap="round" stroke-linejoin="round"/></symbol>
  <symbol id="i-mail" viewBox="0 0 24 24"><rect x="3" y="5" width="18" height="14" rx="2" fill="none" stroke="currentColor" stroke-width="2"/><path d="M4 7l8 6 8-6" fill="none" stroke="currentColor" stroke-width="2"/></symbol>
  <symbol id="i-pin" viewBox="0 0 24 24"><path d="M12 22s7-6 7-12a7 7 0 1 0-14 0c0 6 7 12 7 12z" fill="none" stroke="currentColor" stroke-width="2"/><circle cx="12" cy="10" r="3" fill="none" stroke="currentColor" stroke-width="2"/></symbol>
  <symbol id="i-globe" viewBox="0 0 24 24"><circle cx="12" cy="12" r="9" fill="none" stroke="currentColor" stroke-width="2"/><path d="M3 12h18M12 3a13 13 0 0 1 0 18M12 3a13 13 0 0 0 0 18" fill="none" stroke="currentColor" stroke-width="2"/></symbol>
  <symbol id="i-brief" viewBox="0 0 24 24"><rect x="3" y="7" width="18" height="13" rx="2" fill="none" stroke="currentColor" stroke-width="2"/><path d="M9 7V5a2 2 0 0 1 2-2h2a2 2 0 0 1 2 2v2M3 12h18" fill="none" stroke="currentColor" stroke-width="2"/></symbol>
</svg>
